<svg viewBox="0 0 64 48" width="64" height="48" xmlns="http://www.w3.org/2000/svg"
     fill="#FFFFFF"
     stroke="#FFFFFF"
>

    <style>
        .gear {
            stroke: #FFFFFF;
        }
    </style>
    <path
        d="M2 18 L2 2 L62 2 L62 46 L32 46"
        fill="none"
        stroke-width="4"
        stroke="#FFFFFF"
        stroke-linecap="round"
    />
  <!-- Waves -->
<!--  <circle cx="3" cy="45" r="3" />-->
  <path d="M0 38a10 10 0 0 1 10 10" fill="none" stroke="#FFFFFF" stroke-width="4">
      <animate attributeName="stroke" values="transparent;#FFFFFF;transparent;transparent;transparent" dur="1.5s" repeatCount="indefinite"/>
  </path>
  <path d="M0 31a18 18 0 0 1 18 18" fill="none" stroke="#FFFFFF" stroke-width="4">
      <animate attributeName="stroke" values="transparent;#FFFFFF;transparent;transparent;transparent" dur="1.5s" begin="0.2s" repeatCount="indefinite"/>
  </path>
  <path d="M0 24a26 26 0 0 1 26 26" fill="none" stroke="#FFFFFF" stroke-width="4">
      <animate attributeName="stroke" values="transparent;#FFFFFF;transparent;transparent;transparent" dur="1.5s" begin="0.4s" repeatCount="indefinite"/>
  </path>

    <g>
        <circle cx="44" cy="26" r="4" stroke-width="2" fill="none"/>
        <circle cx="44" cy="26" r="7" stroke-width="3" fill="none"/>
        <path d="M44 20 L44 16" stroke-width="3" transform="rotate(0 44 26)"/>
        <path d="M44 20 L44 15" stroke-width="3" transform="rotate(30 44 26)"/>
        <path d="M44 20 L44 16" stroke-width="3" transform="rotate(60 44 26)"/>
        <path d="M44 20 L44 16" stroke-width="3" transform="rotate(90 44 26)"/>
        <path d="M44 20 L44 15" stroke-width="3" transform="rotate(120 44 26)"/>
        <path d="M44 20 L44 16" stroke-width="3" transform="rotate(150 44 26)"/>
        <path d="M44 20 L44 16" stroke-width="3" transform="rotate(180 44 26)"/>
        <path d="M44 20 L44 15" stroke-width="3" transform="rotate(210 44 26)"/>
        <path d="M44 20 L44 15" stroke-width="3" transform="rotate(240 44 26)"/>
        <path d="M44 20 L44 16" stroke-width="3" transform="rotate(270 44 26)"/>
        <path d="M44 20 L44 15" stroke-width="3" transform="rotate(300 44 26)"/>
        <path d="M44 20 L44 16" stroke-width="3" transform="rotate(330 44 26)"/>
        <animateTransform
                attributeType="xml"
                attributeName="transform"
                type="rotate"
                from="0 44 26"
                to="-360 44 26"
                dur="4s"
                repeatCount="indefinite"
        />

    </g>

    <g>
        <circle cx="32" cy="15" r="2" stroke-width="2" fill="none"/>
        <circle cx="32" cy="15" r="5" stroke-width="2" fill="none"/>
        <path d="M32 10 L32 7" stroke-width="2" transform="rotate(0 32 15)"/>
        <path d="M32 10 L32 7" stroke-width="2" transform="rotate(30 32 15)"/>
        <path d="M32 10 L32 6.5" stroke-width="2" transform="rotate(60 32 15)"/>
        <path d="M32 10 L32 7" stroke-width="2" transform="rotate(90 32 15)"/>
        <path d="M32 10 L32 6.5" stroke-width="2" transform="rotate(120 32 15)"/>
        <path d="M32 10 L32 7" stroke-width="2" transform="rotate(150 32 15)"/>
        <path d="M32 10 L32 7" stroke-width="2" transform="rotate(180 32 15)"/>
        <path d="M32 10 L32 7" stroke-width="2" transform="rotate(210 32 15)"/>
        <path d="M32 10 L32 6.5" stroke-width="2" transform="rotate(240 32 15)"/>
        <path d="M32 10 L32 7" stroke-width="2" transform="rotate(270 32 15)"/>
        <path d="M32 10 L32 6.5" stroke-width="2" transform="rotate(300 32 15)"/>
        <path d="M32 10 L32 6.5" stroke-width="2" transform="rotate(330 32 15)"/>
        <path d="M32 10 L32 7" stroke-width="2" transform="rotate(360 32 15)"/>
        <animateTransform
                attributeType="xml"
                attributeName="transform"
                type="rotate"
                from="0 32 15"
                to="360 32 15"
                dur="4s"
                repeatCount="indefinite"
        />
    </g>

</svg>
